HIERARCHY
ROOT hip
{
	OFFSET 0.000000 0.000000 0.000000 
	CHANNELS 6 Xposition Yposition Zposition Xrotation Zrotation Yrotation
	JOINT abdomen
	{
		OFFSET 0.000000 3.402643 0.000000 
		CHANNELS 3 Xrotation Zrotation Yrotation
		JOINT chest
		{
			OFFSET 0.000000 8.438565 -0.680529 
			CHANNELS 3 Xrotation Zrotation Yrotation
			JOINT neck
			{
				OFFSET 0.000000 10.207942 -0.272212 
				CHANNELS 3 Xrotation Zrotation Yrotation
				JOINT head
				{
					OFFSET 0.000000 3.130431 0.000000 
					CHANNELS 3 Xrotation Zrotation Yrotation
					End Site
					{
						OFFSET 0.000000 3.130435 0.000000 
					}
				}
			}
			JOINT lCollar
			{
				OFFSET 3.470700 6.669187 -0.816635 
				CHANNELS 3 Yrotation Zrotation Xrotation
				JOINT lShldr
				{
					OFFSET 3.198488 0.000000 0.000000 
					CHANNELS 3 Zrotation Yrotation Xrotation
					JOINT lForeArm
					{
						OFFSET 10.139888 0.000000 0.000000 
						CHANNELS 3 Yrotation Zrotation Xrotation
						JOINT lHand
						{
							OFFSET 8.370511 0.000000 0.000000 
							CHANNELS 3 Zrotation Yrotation Xrotation
							End Site
							{
								OFFSET 4.083176 0.000000 0.000000 
							}
						}
					}
				}
			}
			JOINT rCollar
			{
				OFFSET -3.470700 6.669187 -0.816635 
				CHANNELS 3 Yrotation Zrotation Xrotation
				JOINT rShldr
				{
					OFFSET -3.198488 0.000000 0.000000 
					CHANNELS 3 Zrotation Yrotation Xrotation
					JOINT rForeArm
					{
						OFFSET -10.139888 0.000000 0.000000 
						CHANNELS 3 Yrotation Zrotation Xrotation
						JOINT rHand
						{
							OFFSET -8.370511 0.000000 0.000000 
							CHANNELS 3 Zrotation Yrotation Xrotation
							End Site
							{
								OFFSET -4.083176 0.000000 0.000000 
							}
						}
					}
				}
			}
		}
	}
	JOINT lThigh
	{
		OFFSET 5.308129 -1.633274 1.361059 
		CHANNELS 3 Xrotation Zrotation Yrotation
		JOINT lShin
		{
			OFFSET -2.041588 -20.007561 0.000000 
			CHANNELS 3 Xrotation Zrotation Yrotation
			JOINT lFoot
			{
				OFFSET 0.000000 -19.190928 -1.224953 
				CHANNELS 3 Xrotation Yrotation Zrotation
				End Site
				{
					OFFSET 0.000000 -2.449906 4.627600 
				}
			}
		}
	}
	JOINT rThigh
	{
		OFFSET -5.308129 -1.633274 1.361059 
		CHANNELS 3 Xrotation Zrotation Yrotation
		JOINT rShin
		{
			OFFSET 2.041588 -20.007561 0.000000 
			CHANNELS 3 Xrotation Zrotation Yrotation
			JOINT rFoot
			{
				OFFSET 0.000000 -19.190928 -1.224953 
				CHANNELS 3 Xrotation Yrotation Zrotation
				End Site
				{
					OFFSET 0.000000 -2.449906 4.627600 
				}
			}
		}
	}
}
MOTION
Frames: 6
Frame Time: 0.016667
8.585224 44.901623 89.432281 -5.644930 0.680279 -12.625800 -18.400600 3.209320 0.609255 11.959300 4.992390 0.193786 26.311701 -2.466530 -6.176330 14.874000 3.631980 -2.933180 2.000000 -2.000000 0.000000 -89.602798 19.958401 153.393997 33.769901 -0.328498 0.076054 0.051647 -0.046915 -153.923996 -2.000000 2.000000 0.000000 83.234703 -8.115180 111.720001 -69.053299 0.263726 0.127687 -0.148012 0.145856 157.697006 -16.857616 -8.377644 -4.674613 31.011990 2.448926 2.396341 -4.967554 2.507698 0.217416 -7.235230 1.903918 2.565102 66.899506 -1.096817 -4.016791 25.058214 -4.373564 2.179542 
8.513372 45.161919 91.823624 -6.673730 1.930200 -12.208100 -18.357100 2.491180 -0.332530 12.002400 5.427590 -0.374803 25.871401 -4.304440 -4.915640 14.564400 3.165830 -2.161530 2.000000 -2.000000 0.000000 -89.106598 19.864599 155.190994 35.976898 -0.325487 0.080374 0.052486 -0.049575 -154.919998 -2.000000 2.000000 0.000000 82.464996 -8.350240 112.482002 -77.353996 0.244780 0.133407 -0.136697 0.140121 162.229004 -12.603838 -10.196935 -4.360314 29.209208 2.503599 2.277032 -6.408860 1.530887 0.040550 -11.899286 -0.071591 1.129297 72.838943 -0.536127 -4.243398 15.027391 -8.206610 2.183447 
8.432422 45.395191 94.149696 -7.056870 2.374470 -11.084600 -18.438999 2.102930 -1.451790 12.185300 5.671740 -0.979478 25.615900 -5.720710 -3.862220 14.393800 2.793240 -1.526840 2.000000 -2.000000 0.000000 -88.629997 19.712601 157.154007 39.443802 -0.320428 0.086916 0.063379 -0.052918 -156.179993 -2.000000 2.000000 0.000000 81.511101 -8.058640 113.936996 -86.221199 0.223859 0.136427 -0.120728 0.129935 168.996002 -9.244658 -11.095194 -4.471498 28.218096 2.580674 2.185652 -7.898430 0.705295 -0.168738 -15.885731 -0.806613 -0.386790 74.395302 -0.270223 -4.344175 8.232432 -10.753617 1.566609 
8.320207 45.556984 96.441055 -7.347130 3.419030 -10.391500 -18.645901 1.819620 -2.097010 12.157700 6.193150 -1.351950 25.864401 -6.739220 -3.394310 14.497500 2.427160 -1.188660 2.000000 -2.000000 0.000000 -87.811501 19.063900 159.695007 42.695702 -0.315331 0.092765 0.064152 -0.055081 -157.000000 -2.000000 2.000000 0.000000 79.991699 -7.787040 115.772003 -94.355904 0.205207 0.116828 179.897995 179.876007 -2.409920 -6.504020 -12.495204 -4.804438 27.417612 2.619641 2.129936 -9.138485 -0.031230 -0.413310 -19.549223 -1.666515 -0.621038 72.879204 -0.315762 -4.354858 2.570821 -11.427974 0.783100 
8.207767 45.492558 98.596497 -7.314170 4.145800 -9.593460 -18.860701 1.544220 -2.693520 12.025800 6.442210 -1.696030 26.126699 -7.649580 -3.047060 14.747800 2.012040 -0.894760 2.000000 -2.000000 0.000000 -86.660500 18.025200 162.427994 46.270000 -0.309356 0.098848 0.064694 -0.056543 -157.556000 -2.000000 2.000000 0.000000 77.976700 -7.175210 118.877998 -101.103996 0.190399 0.114818 179.914001 179.904007 6.496310 -4.207578 -13.485394 -4.548557 27.609842 2.654804 2.115517 -10.471251 -0.409895 -0.611153 -22.908133 -1.776891 -0.209963 68.683800 -0.594542 -4.259874 -3.359041 -10.583969 -0.126181 
8.060593 45.402527 100.740250 -7.434210 4.406160 -8.933530 -18.755100 1.342790 -3.063770 12.173400 6.435000 -1.893020 26.004400 -7.684370 -3.108870 14.903000 1.886000 -0.883959 2.000000 -2.000000 0.000000 -85.050003 16.478800 165.205002 50.352001 -0.302084 0.105324 0.065791 -0.059373 -158.639999 -2.000000 2.000000 0.000000 75.846603 -5.891330 123.097000 -106.337997 0.179136 0.112069 -0.082894 0.075223 -164.880997 -1.816508 -14.024518 -4.424108 28.131500 2.743915 2.127579 -11.535385 -0.391508 -0.738547 -25.128014 -1.231128 0.495099 61.679935 -1.096471 -3.993905 -7.523376 -11.362848 -0.766166 
